<svg width="800" height="800" viewBox="-6 0 32 32" xmlns="http://www.w3.org/2000/svg"><path d="M14.188 10.844h3.781c.906 0 1.656.719 1.656 1.656v5.688h-9v-6.625c-.313-.094-.594-.219-.781-.406-.031 0-.031-.031-.063-.031 0 0 0 .031-.031.031a2.165 2.165 0 0 1-.75.406v6.625H0V12.5c0-.938.719-1.656 1.625-1.656h3.813c-.438-.219-.844-.531-1.188-.813-1.5-1.438-1.781-3.438-.594-4.563a2.823 2.823 0 0 1 1.875-.688c1.031 0 2.094.406 3 1.25.5.469.969 1.125 1.25 1.75.313-.625.781-1.281 1.281-1.75.875-.844 2-1.25 3-1.25.75 0 1.406.25 1.875.688 1.188 1.125.906 3.125-.625 4.563a6.15 6.15 0 0 1-1.125.813zm-5.563-.906c.125-.281-.188-1.719-1.219-2.688-.531-.5-1.25-.781-1.875-.781-.188 0-.5.031-.719.219-.063.063-.25.188-.25.531 0 .406.25 1.031.844 1.563.75.719 1.938 1.219 2.813 1.219.281 0 .406-.063.406-.063zm2.375 0s.156.063.406.063c.875 0 2.063-.5 2.813-1.219.594-.531.781-1.156.781-1.563 0-.344-.156-.469-.188-.531-.219-.188-.563-.219-.75-.219-.594 0-1.344.281-1.875.781-1 .969-1.344 2.375-1.188 2.719v-.031zm-2 17.25H1.625A1.614 1.614 0 0 1 0 25.563v-5.719h9v7.344zm8.969 0h-7.344v-7.344h9v5.719c0 .906-.75 1.625-1.656 1.625z"/></svg>